<?xml version="1.0" encoding="UTF-8"?>
<svg version="1.1" viewBox="0 0 812 828" width="1280" height="1280" xmlns="http://www.w3.org/2000/svg">
<path transform="translate(387,234)" d="m0 0 13 2 12 6 9 10 9 11 13 15 9 11 3 3-1 4-11 12-9 11-10 11-9 11-11 12-9 11-10 11-9 11-10 11-9 11-11 12-9 11-10 11-9 11-11 12-9 11-10 11-9 11-11 12-9 11-6 7-2 8v18l4 10 6 8 9 6 15 5 11 2 17 1h396l3 6-260 1h-325l-13-3-8-5-4-6-2-7v-10l4-11 8-10 13-15 11-14 12-14 18-22 84-102 11-13 8-10 11-13 9-11 11-13 9-11 11-13 9-11 24-28 10-9 12-6z" fill="#578A8C"/>
<path transform="translate(476,318)" d="m0 0 5 5 12 13 18 22 2 6v11l-3 14-5 10-18 18-7 8-14 14-7 8-8 8-7 8-15 16-7 8-12 15-1 5v11l4 8 6 4 4 1 232 1 40 40v2h-360l-18-2-12-4-6-4-4-6-3-11v-7l4-13 8-11 11-12 9-11 11-12 9-11 10-11 9-11 10-11 9-11 11-12 9-11 10-11 9-11 10-11 9-11 11-12 9-11 10-11z" fill="#578A8C"/>
</svg>
